# xmcd
#
# Track frame offsets:
#	150
#	13033
#	28566
#	46776
#	59246
#	73522
#	89260
#	103129
#	119358
#	135962
#	149707
#	162508
#	179068
#
# Disc length: 2602 seconds
#
# Revision: 1
# Processed by: cddbd v1.5.2PL0 Copyright (c) Steve Scherf et al.
# Submitted via: audiograbber 1.83.01
#
DISCID=bf0a280d
DTITLE=Bobby Atkins - The Other Half Of Me
DYEAR=1900
DGENRE=Bluegrass
TTITLE0=The Winding Road
TTITLE1=The Other Half Of Me
TTITLE2=The One We Chose To Leave
TTITLE3=Lay Your Heart On The Line
TTITLE4=The Circle Of Love
TTITLE5=Our Love Was All Over
TTITLE6=Memories
TTITLE7=Love Beyond Degree
TTITLE8=I Could Really Use A Friend
TTITLE9=One Last Time
TTITLE10=Looking For Yesterday
TTITLE11=The Passionate Touch
TTITLE12=Ther's Not Enough Words
EXTD=
EXTT0=
EXTT1=
EXTT2=
EXTT3=
EXTT4=
EXTT5=
EXTT6=
EXTT7=
EXTT8=
EXTT9=
EXTT10=
EXTT11=
EXTT12=
PLAYORDER=
